# xmcd
#
# Track frame offsets:
#	150
#	21068
#	40425
#	60490
#	91458
#	114235
#	135118
#	155840
#	162400
#	183723
#	205778
#	227885
#	247965
#	269788
#	287895
#	309410
#	320763
#
# Disc length: 4713 seconds
#
# Revision: 1
# Processed by: cddbd v1.5.1PL0 Copyright (c) Steve Scherf et al.
# Submitted via: CDex 1.50Beta5
#
DISCID=f5126711
DTITLE=BUCK-TICK - Six/NiNe
DYEAR=2002
DGENRE=Rock
TTITLE0=Loop
TTITLE1=love letter
TTITLE2=君のヴァニラ
TTITLE3=鼓動
TTITLE4=限りなく鼠
TTITLE5=楽園(祈り 希い)
TTITLE6=細い線
TTITLE7=Somewhere Nowhere
TTITLE8=相変わらずの「アレ」のカタマリがのさばる反吐の底の吹き溜まり
TTITLE9=デタラメ野郎
TTITLE10=密室
TTITLE11=Kick(大地を蹴る男)
TTITLE12=愛しのロック・スター
TTITLE13=唄
TTITLE14=見えない物を見ようとする誤解 全て誤解だ
TTITLE15=Loop MARK II
TTITLE16=太陽ニ殺サレタ(Live at Omiya Sonic City 1993)
EXTD=
EXTT0=
EXTT1=
EXTT2=
EXTT3=
EXTT4=
EXTT5=
EXTT6=
EXTT7=
EXTT8=
EXTT9=
EXTT10=
EXTT11=
EXTT12=
EXTT13=
EXTT14=
EXTT15=
EXTT16=
PLAYORDER=
